<svg width="151" height="22" viewBox="0 0 151 22" fill="none" xmlns="http://www.w3.org/2000/svg">
<path fill-rule="evenodd" clip-rule="evenodd" d="M3.42851 3.87508C4.16413 2.77909 5.09021 1.85926 6.20678 1.11555C7.32335 0.371848 8.61724 0 10.0885 0C11.7174 0 13.0441 0.384895 14.0687 1.1547C15.0933 1.9245 15.8289 2.9748 16.2756 4.30565C17.09 3.10528 18.0555 2.08759 19.1721 1.25255C20.2886 0.417513 21.6745 0 23.3296 0C24.4331 0 25.3985 0.182662 26.2261 0.547991C27.0537 0.913321 27.7433 1.42869 28.295 2.09411C28.8468 2.75953 29.2605 3.55542 29.5364 4.48179C29.8123 5.40816 29.9502 6.43237 29.9502 7.55445V20.8237H26.4035V7.82845C26.4035 6.41932 26.0751 5.27768 25.4183 4.4035C24.7614 3.52932 23.8551 3.09224 22.6991 3.09224C22.0948 3.09224 21.5169 3.20966 20.9651 3.44452C20.4134 3.67937 19.888 3.99903 19.3888 4.4035C18.8896 4.80797 18.4167 5.27768 17.9701 5.81262C17.5235 6.34757 17.1163 6.90208 16.7485 7.47617V20.8237H13.2017V7.82845C13.2017 6.41932 12.8733 5.27768 12.2165 4.4035C11.5597 3.52932 10.6533 3.09224 9.49736 3.09224C8.91938 3.09224 8.35453 3.20314 7.80281 3.42495C7.2511 3.64675 6.71909 3.95336 6.20678 4.34479C5.69448 4.73621 5.21501 5.19287 4.76839 5.71477C4.32176 6.23667 3.91454 6.78465 3.54673 7.35874V20.8237H0V0.469707H3.42851V3.87508ZM34.6792 10.7641C34.6792 9.25061 34.9156 7.83498 35.3885 6.51718C35.8614 5.19939 36.5248 4.05775 37.3786 3.09224C38.2325 2.12672 39.2571 1.36998 40.4525 0.821987C41.6479 0.273993 42.9549 0 44.3736 0C45.5558 0 46.6264 0.202233 47.5853 0.606705C48.5443 1.01118 49.3784 1.5135 50.0878 2.11368V0.469707H53.3192V15.8918C53.3192 16.8834 53.5623 17.5292 54.0483 17.8293C54.5343 18.1294 55.0663 18.2794 55.6443 18.2794L54.8956 21.0194C52.3734 21.0194 50.8497 20.0017 50.3242 17.9663C50.0089 18.3838 49.6477 18.7948 49.2405 19.1993C48.8333 19.6037 48.3669 19.9625 47.8415 20.2757C47.3161 20.5888 46.7249 20.8367 46.0681 21.0194C45.4113 21.2021 44.6889 21.2934 43.9007 21.2934C42.6133 21.2934 41.4114 21.0455 40.2948 20.5497C39.1783 20.0539 38.2062 19.3493 37.3786 18.436C36.5511 17.5227 35.8943 16.4202 35.4082 15.1285C34.9222 13.8368 34.6792 12.382 34.6792 10.7641ZM47.5262 17.4574C46.6329 17.9272 45.6872 18.162 44.6888 18.162C43.7693 18.162 42.922 17.9793 42.147 17.614C41.372 17.2487 40.6955 16.7333 40.1175 16.0679C39.5395 15.4025 39.0929 14.6066 38.7776 13.6802C38.4623 12.7538 38.3047 11.7427 38.3047 10.6467C38.3047 9.52461 38.4623 8.49388 38.7776 7.55446C39.0929 6.61504 39.5329 5.81263 40.0978 5.14721C40.6626 4.48179 41.3391 3.96642 42.1273 3.60109C42.9155 3.23576 43.7824 3.0531 44.7282 3.0531C45.674 3.0531 46.5738 3.20314 47.4277 3.50324C48.2815 3.80333 49.0631 4.20127 49.7725 4.69707V15.6178C49.1682 16.3745 48.4195 16.9877 47.5262 17.4574ZM63.8018 3.87508C64.5374 2.77909 65.4766 1.85926 66.6195 1.11555C67.7623 0.371848 69.1219 0 70.6982 0C73.0102 0 74.7376 0.691506 75.8804 2.07454C77.0233 3.45757 77.5947 5.28419 77.5947 7.55445V20.8237H74.048V7.94587C74.048 6.45846 73.7064 5.27768 73.0233 4.4035C72.3402 3.52932 71.3682 3.09224 70.1071 3.09224C69.5029 3.09224 68.9117 3.20314 68.3337 3.42495C67.7558 3.64675 67.1975 3.95336 66.6589 4.34479C66.1203 4.73621 65.6211 5.19287 65.1614 5.71477C64.7016 6.23667 64.2878 6.78465 63.92 7.35874V20.8237H60.3733V0.469707H63.8018V3.87508ZM83.033 6.51718C82.5601 7.83498 82.3236 9.25061 82.3236 10.7641C82.3236 12.382 82.5667 13.8368 83.0527 15.1285C83.5387 16.4202 84.1955 17.5227 85.0231 18.436C85.8507 19.3493 86.8227 20.0539 87.9393 20.5497C89.0559 21.0455 90.2578 21.2934 91.5451 21.2934C92.3333 21.2934 93.0558 21.2021 93.7126 21.0194C94.3694 20.8367 94.9605 20.5888 95.486 20.2757C96.0114 19.9625 96.4777 19.6037 96.8849 19.1993C97.2922 18.7948 97.6534 18.3838 97.9687 17.9663C98.4941 20.0017 100.879 21.2848 103.401 21.2848L106.665 18.9984C103.091 19.693 100.964 16.8834 100.964 15.8918V0.469707H97.7322V2.11368C97.0229 1.5135 96.1887 1.01118 95.2298 0.606705C94.2709 0.202233 93.2003 0 92.018 0C90.5993 0 89.2923 0.273993 88.0969 0.821987C86.9015 1.36998 85.8769 2.12672 85.0231 3.09224C84.1693 4.05775 83.5059 5.19939 83.033 6.51718ZM92.3333 18.162C93.3316 18.162 94.2774 17.9272 95.1707 17.4574C96.0639 16.9877 96.8127 16.3745 97.4169 15.6178V4.69707C96.7076 4.20127 95.926 3.80333 95.0722 3.50324C94.2183 3.20314 93.3185 3.0531 92.3727 3.0531C91.4269 3.0531 90.56 3.23576 89.7718 3.60109C88.9836 3.96642 88.3071 4.48179 87.7423 5.14721C87.1774 5.81263 86.7374 6.61504 86.4221 7.55446C86.1068 8.49388 85.9492 9.52461 85.9492 10.6467C85.9492 11.7427 86.1068 12.7538 86.4221 13.6802C86.7374 14.6066 87.184 15.4025 87.762 16.0679C88.34 16.7333 89.0165 17.2487 89.7915 17.614C90.5665 17.9793 91.4138 18.162 92.3333 18.162ZM114.264 1.11555C113.121 1.85926 112.182 2.77909 111.446 3.87508V0.469707H108.018V20.8237H111.564V7.35874C111.932 6.78465 112.346 6.23667 112.806 5.71477C113.266 5.19287 113.765 4.73621 114.303 4.34479C114.842 3.95336 115.4 3.64675 115.978 3.42495C116.556 3.20314 117.147 3.09224 117.752 3.09224C119.013 3.09224 119.985 3.52932 120.668 4.4035C121.351 5.27768 121.692 6.45846 121.692 7.94587V20.8237H125.239V7.55445C125.239 5.28419 124.668 3.45757 123.525 2.07454C122.382 0.691506 120.655 0 118.343 0C116.766 0 115.407 0.371848 114.264 1.11555ZM129.968 10.7641C129.968 9.25061 130.205 7.83498 130.677 6.51718C131.15 5.19939 131.814 4.05775 132.668 3.09224C133.521 2.12672 134.546 1.36998 135.741 0.821987C136.937 0.273993 138.244 0 139.663 0C140.845 0 141.915 0.202233 142.874 0.606705C143.833 1.01118 144.667 1.5135 145.377 2.11368V0.469707H148.608V15.8918C148.608 16.8834 148.851 17.5292 149.337 17.8293C149.823 18.1294 150.355 18.2794 150.933 18.2794L150.185 21.0194C147.662 21.0194 146.139 20.0017 145.613 17.9663C145.298 18.3838 144.937 18.7948 144.529 19.1993C144.122 19.6037 143.656 19.9625 143.13 20.2757C142.605 20.5888 142.014 20.8367 141.357 21.0194C140.7 21.2021 139.978 21.2934 139.19 21.2934C137.902 21.2934 136.7 21.0455 135.584 20.5497C134.467 20.0539 133.495 19.3493 132.668 18.436C131.84 17.5227 131.183 16.4202 130.697 15.1285C130.211 13.8368 129.968 12.382 129.968 10.7641ZM142.815 17.4574C141.922 17.9272 140.976 18.162 139.978 18.162C139.058 18.162 138.211 17.9793 137.436 17.614C136.661 17.2487 135.984 16.7333 135.406 16.0679C134.828 15.4025 134.382 14.6066 134.067 13.6802C133.751 12.7538 133.594 11.7427 133.594 10.6467C133.594 9.52461 133.751 8.49388 134.067 7.55446C134.382 6.61504 134.822 5.81263 135.387 5.14721C135.952 4.48179 136.628 3.96642 137.416 3.60109C138.204 3.23576 139.071 3.0531 140.017 3.0531C140.963 3.0531 141.863 3.20314 142.717 3.50324C143.57 3.80333 144.352 4.20127 145.061 4.69707V15.6178C144.457 16.3745 143.708 16.9877 142.815 17.4574Z" fill="white"/>
<path d="M99.5576 20.1285C100.773 20.9249 102.426 21.4473 104.029 21.2933C106.158 21.0888 107.834 20.418 108.552 19.1298L108.36 15.9658C107.866 16.8649 105.627 19.3135 102.387 18.1619C99.1465 17.0103 101.497 19.2484 101.025 17.2384L99.5576 20.1285Z" fill="white"/>
</svg>
